G04 #@! TF.FileFunction,Copper,L1,Top,Signal*
%FSLAX46Y46*%
G04 Gerber Fmt 4.6, Leading zero omitted, Abs format (unit mm)*
G04 Created by KiCad (PCBNEW 4.0.0-rc1-stable) date Di 10 Nov 2015 17:33:22 CET*
%MOMM*%
G01*
G04 APERTURE LIST*
%ADD10C,0.100000*%
%ADD11C,1.998980*%
%ADD12O,2.300000X1.600000*%
%ADD13C,1.250000*%
G04 APERTURE END LIST*
D10*
D11*
X158750000Y-103124000D03*
X139446000Y-103124000D03*
X156210000Y-103124000D03*
X141986000Y-103124000D03*
X158750000Y-105664000D03*
X156210000Y-105664000D03*
X161290000Y-105664000D03*
X161290000Y-108204000D03*
X158750000Y-108204000D03*
X163830000Y-108204000D03*
X156210000Y-108204000D03*
X141986000Y-105664000D03*
X139446000Y-105664000D03*
X136906000Y-105664000D03*
X139446000Y-108204000D03*
X136906000Y-108204000D03*
X141986000Y-108204000D03*
X134366000Y-108204000D03*
X126746000Y-123444000D03*
X126746000Y-120904000D03*
X126746000Y-125984000D03*
X129286000Y-125984000D03*
X129286000Y-128524000D03*
X129286000Y-131064000D03*
X129286000Y-123444000D03*
X129286000Y-120904000D03*
X129286000Y-115824000D03*
X129286000Y-118364000D03*
X171450000Y-123444000D03*
X171450000Y-120904000D03*
X171450000Y-125984000D03*
X168910000Y-115824000D03*
X168910000Y-118364000D03*
X168910000Y-123444000D03*
X168910000Y-120904000D03*
X168910000Y-128524000D03*
X168910000Y-125984000D03*
X168910000Y-131064000D03*
X158750000Y-113284000D03*
X161290000Y-113284000D03*
X158750000Y-115824000D03*
X161290000Y-115824000D03*
X161290000Y-118364000D03*
X158750000Y-118364000D03*
X163830000Y-113284000D03*
X166370000Y-110744000D03*
X166370000Y-113284000D03*
X163830000Y-110744000D03*
X158750000Y-128524000D03*
X158750000Y-125984000D03*
X161290000Y-125984000D03*
X166370000Y-125984000D03*
X161290000Y-123444000D03*
X166370000Y-120904000D03*
X163830000Y-125984000D03*
X166370000Y-123444000D03*
X163830000Y-120904000D03*
X161290000Y-120904000D03*
X163830000Y-123444000D03*
X158750000Y-123444000D03*
X158750000Y-120904000D03*
X161290000Y-136144000D03*
X166370000Y-136144000D03*
X163830000Y-133604000D03*
X166370000Y-133604000D03*
X163830000Y-136144000D03*
X161290000Y-133604000D03*
X163830000Y-131064000D03*
X163830000Y-128524000D03*
X161290000Y-128524000D03*
X161290000Y-131064000D03*
X166370000Y-128524000D03*
X166370000Y-131064000D03*
X158750000Y-133604000D03*
X158750000Y-131064000D03*
X158750000Y-136144000D03*
X163830000Y-118364000D03*
X166370000Y-118364000D03*
X163830000Y-115824000D03*
X166370000Y-115824000D03*
X161290000Y-110744000D03*
X158750000Y-110744000D03*
X156210000Y-118364000D03*
X156210000Y-115824000D03*
X156210000Y-120904000D03*
X156210000Y-123444000D03*
X156210000Y-125984000D03*
X156210000Y-128524000D03*
X156210000Y-113284000D03*
X156210000Y-131064000D03*
X156210000Y-136144000D03*
X156210000Y-133604000D03*
X144018000Y-145288000D03*
X144018000Y-142748000D03*
X146558000Y-145288000D03*
X146558000Y-142748000D03*
X151638000Y-145288000D03*
X151638000Y-142748000D03*
X149098000Y-145288000D03*
X149098000Y-142748000D03*
X154178000Y-145288000D03*
X154178000Y-142748000D03*
X144018000Y-140208000D03*
X146558000Y-140208000D03*
X149098000Y-140208000D03*
X154178000Y-140208000D03*
X151638000Y-140208000D03*
X131826000Y-125984000D03*
X134366000Y-125984000D03*
X134366000Y-123444000D03*
X131826000Y-120904000D03*
X131826000Y-123444000D03*
X131826000Y-131064000D03*
X131826000Y-128524000D03*
X134366000Y-131064000D03*
X134366000Y-128524000D03*
X136906000Y-131064000D03*
X136906000Y-128524000D03*
X141986000Y-131064000D03*
X139446000Y-131064000D03*
X141986000Y-128524000D03*
X141986000Y-125984000D03*
X139446000Y-125984000D03*
X139446000Y-128524000D03*
X139446000Y-123444000D03*
X139446000Y-120904000D03*
X141986000Y-123444000D03*
X141986000Y-120904000D03*
X136906000Y-125984000D03*
X136906000Y-123444000D03*
X136906000Y-120904000D03*
X134366000Y-120904000D03*
X134366000Y-133604000D03*
X131826000Y-136144000D03*
X131826000Y-133604000D03*
X134366000Y-136144000D03*
X139446000Y-118364000D03*
X141986000Y-118364000D03*
X141986000Y-110744000D03*
X141986000Y-115824000D03*
X141986000Y-113284000D03*
X139446000Y-110744000D03*
X131826000Y-118364000D03*
X136906000Y-118364000D03*
X131826000Y-115824000D03*
X134366000Y-118364000D03*
X136906000Y-110744000D03*
X139446000Y-115824000D03*
X134366000Y-113284000D03*
X136906000Y-115824000D03*
X136906000Y-113284000D03*
X139446000Y-113284000D03*
X134366000Y-115824000D03*
X136906000Y-133604000D03*
X139446000Y-133604000D03*
X139446000Y-136144000D03*
X141986000Y-136144000D03*
X136906000Y-136144000D03*
X141986000Y-133604000D03*
X131826000Y-113284000D03*
X131826000Y-110744000D03*
X134366000Y-110744000D03*
X156210000Y-110744000D03*
D12*
X145288000Y-136144000D03*
X145288000Y-133604000D03*
X145288000Y-131064000D03*
X145288000Y-128524000D03*
X145288000Y-125984000D03*
X145288000Y-123444000D03*
X145288000Y-120904000D03*
X145288000Y-118364000D03*
X145288000Y-115824000D03*
X145288000Y-113284000D03*
X145288000Y-110744000D03*
X145288000Y-108204000D03*
X145288000Y-105664000D03*
X145288000Y-103124000D03*
X152908000Y-103124000D03*
X152908000Y-105664000D03*
X152908000Y-108204000D03*
X152908000Y-110744000D03*
X152908000Y-113284000D03*
X152908000Y-115824000D03*
X152908000Y-118364000D03*
X152908000Y-120904000D03*
X152908000Y-123444000D03*
X152908000Y-125984000D03*
X152908000Y-128524000D03*
X152908000Y-131064000D03*
X152908000Y-133604000D03*
X152908000Y-136144000D03*
D13*
X154178000Y-140208000D02*
X165100000Y-140208000D01*
X165100000Y-140208000D02*
X168656000Y-136652000D01*
X168656000Y-136652000D02*
X168656000Y-134366000D01*
X168656000Y-134366000D02*
X170942000Y-132080000D01*
X171450000Y-129032000D02*
X171450000Y-125984000D01*
X170942000Y-132080000D02*
X170942000Y-129540000D01*
X170942000Y-129540000D02*
X171450000Y-129032000D01*
X126746000Y-125984000D02*
X126746000Y-127762000D01*
X126746000Y-127762000D02*
X127254000Y-128270000D01*
X151019492Y-138176000D02*
X151638000Y-138794508D01*
X127254000Y-128270000D02*
X127254000Y-132334000D01*
X127254000Y-132334000D02*
X129540000Y-134620000D01*
X129540000Y-134620000D02*
X129540000Y-136652000D01*
X151638000Y-138794508D02*
X151638000Y-140208000D01*
X129540000Y-136652000D02*
X131064000Y-138176000D01*
X131064000Y-138176000D02*
X151019492Y-138176000D01*
X126746000Y-123444000D02*
X126746000Y-120904000D01*
X126746000Y-125984000D02*
X126746000Y-123444000D01*
X171450000Y-123444000D02*
X171450000Y-120904000D01*
X171450000Y-125984000D02*
X171450000Y-123444000D01*
M02*
