G04 #@! TF.FileFunction,Legend,Bot*
%FSLAX46Y46*%
G04 Gerber Fmt 4.6, Leading zero omitted, Abs format (unit mm)*
G04 Created by KiCad (PCBNEW 4.0.0-rc1-stable) date Di 10 Nov 2015 17:33:22 CET*
%MOMM*%
G01*
G04 APERTURE LIST*
%ADD10C,0.100000*%
%ADD11C,0.200000*%
%ADD12C,0.300000*%
%ADD13C,0.010000*%
%ADD14C,0.150000*%
G04 APERTURE END LIST*
D10*
D11*
X126746000Y-129794000D02*
X126746000Y-127254000D01*
X129540000Y-136398000D02*
X126746000Y-129794000D01*
X131064000Y-137922000D02*
X129540000Y-136398000D01*
X142748000Y-137922000D02*
X131064000Y-137922000D01*
X142748000Y-138938000D02*
X142748000Y-137922000D01*
X151638000Y-138938000D02*
X142748000Y-138938000D01*
X151638000Y-139192000D02*
X151638000Y-138938000D01*
X154178000Y-137668000D02*
X154178000Y-138938000D01*
X155448000Y-137668000D02*
X154178000Y-137668000D01*
X167386000Y-137668000D02*
X155448000Y-137668000D01*
X170688000Y-132334000D02*
X167386000Y-137668000D01*
X171450000Y-127254000D02*
X170688000Y-132334000D01*
X149574190Y-146946952D02*
X148621809Y-146946952D01*
X149383714Y-147232667D02*
X148812285Y-147232667D01*
X149097999Y-146518381D02*
X149097999Y-146946952D01*
X149002761Y-147518381D02*
X149193237Y-147518381D01*
X156203590Y-138133152D02*
X155251209Y-138133152D01*
X156013114Y-138418867D02*
X155441685Y-138418867D01*
X155727399Y-137704581D02*
X155727399Y-138133152D01*
X155632161Y-138704581D02*
X155822637Y-138704581D01*
X145668952Y-141549429D02*
X144907047Y-141549429D01*
X145287999Y-141930381D02*
X145287999Y-141168476D01*
X172720000Y-119634000D02*
X172720000Y-127254000D01*
X170180000Y-119634000D02*
X172720000Y-119634000D01*
X170180000Y-127254000D02*
X170180000Y-119634000D01*
X128016000Y-119634000D02*
X125476000Y-119634000D01*
X128016000Y-127254000D02*
X128016000Y-119634000D01*
X125476000Y-127254000D02*
X128016000Y-127254000D01*
X125476000Y-119634000D02*
X125476000Y-127254000D01*
X170180000Y-127254000D02*
X172720000Y-127254000D01*
X145668952Y-144089429D02*
X144907047Y-144089429D01*
X145287999Y-144470381D02*
X145287999Y-143708476D01*
D12*
X141683999Y-142156571D02*
X141683999Y-141156571D01*
X141683999Y-141442286D02*
X141612571Y-141299429D01*
X141541142Y-141228000D01*
X141398285Y-141156571D01*
X141255428Y-141156571D01*
X140184000Y-142085143D02*
X140326857Y-142156571D01*
X140612571Y-142156571D01*
X140755428Y-142085143D01*
X140826857Y-141942286D01*
X140826857Y-141370857D01*
X140755428Y-141228000D01*
X140612571Y-141156571D01*
X140326857Y-141156571D01*
X140184000Y-141228000D01*
X140112571Y-141370857D01*
X140112571Y-141513714D01*
X140826857Y-141656571D01*
X139612571Y-141156571D02*
X139255428Y-142156571D01*
X138898286Y-141156571D01*
X138326857Y-141585143D02*
X137184000Y-141585143D01*
X135612571Y-142013714D02*
X135684000Y-142085143D01*
X135898286Y-142156571D01*
X136041143Y-142156571D01*
X136255428Y-142085143D01*
X136398286Y-141942286D01*
X136469714Y-141799429D01*
X136541143Y-141513714D01*
X136541143Y-141299429D01*
X136469714Y-141013714D01*
X136398286Y-140870857D01*
X136255428Y-140728000D01*
X136041143Y-140656571D01*
X135898286Y-140656571D01*
X135684000Y-140728000D01*
X135612571Y-140799429D01*
X141005428Y-140307143D02*
X141148285Y-140378571D01*
X141433999Y-140378571D01*
X141576857Y-140307143D01*
X141648285Y-140235714D01*
X141719714Y-140092857D01*
X141719714Y-139664286D01*
X141648285Y-139521429D01*
X141576857Y-139450000D01*
X141433999Y-139378571D01*
X141148285Y-139378571D01*
X141005428Y-139450000D01*
X140362571Y-139807143D02*
X139219714Y-139807143D01*
X138291142Y-140378571D02*
X138434000Y-140307143D01*
X138505428Y-140164286D01*
X138505428Y-138878571D01*
X137076857Y-140378571D02*
X137076857Y-139592857D01*
X137148286Y-139450000D01*
X137291143Y-139378571D01*
X137576857Y-139378571D01*
X137719714Y-139450000D01*
X137076857Y-140307143D02*
X137219714Y-140378571D01*
X137576857Y-140378571D01*
X137719714Y-140307143D01*
X137791143Y-140164286D01*
X137791143Y-140021429D01*
X137719714Y-139878571D01*
X137576857Y-139807143D01*
X137219714Y-139807143D01*
X137076857Y-139735714D01*
X136362571Y-140378571D02*
X136362571Y-138878571D01*
X136362571Y-139450000D02*
X136219714Y-139378571D01*
X135934000Y-139378571D01*
X135791143Y-139450000D01*
X135719714Y-139521429D01*
X135648285Y-139664286D01*
X135648285Y-140092857D01*
X135719714Y-140235714D01*
X135791143Y-140307143D01*
X135934000Y-140378571D01*
X136219714Y-140378571D01*
X136362571Y-140307143D01*
X161682572Y-142934571D02*
X161111143Y-142934571D01*
X161468286Y-142434571D02*
X161468286Y-143720286D01*
X161396858Y-143863143D01*
X161254000Y-143934571D01*
X161111143Y-143934571D01*
X160611143Y-143934571D02*
X160611143Y-142434571D01*
X159968286Y-143934571D02*
X159968286Y-143148857D01*
X160039715Y-143006000D01*
X160182572Y-142934571D01*
X160396857Y-142934571D01*
X160539715Y-143006000D01*
X160611143Y-143077429D01*
X159254000Y-143934571D02*
X159254000Y-142934571D01*
X159254000Y-142434571D02*
X159325429Y-142506000D01*
X159254000Y-142577429D01*
X159182572Y-142506000D01*
X159254000Y-142434571D01*
X159254000Y-142577429D01*
X158539714Y-142934571D02*
X158539714Y-143934571D01*
X158539714Y-143077429D02*
X158468286Y-143006000D01*
X158325428Y-142934571D01*
X158111143Y-142934571D01*
X157968286Y-143006000D01*
X157896857Y-143148857D01*
X157896857Y-143934571D01*
X156539714Y-142934571D02*
X156539714Y-144148857D01*
X156611143Y-144291714D01*
X156682571Y-144363143D01*
X156825428Y-144434571D01*
X157039714Y-144434571D01*
X157182571Y-144363143D01*
X156539714Y-143863143D02*
X156682571Y-143934571D01*
X156968285Y-143934571D01*
X157111143Y-143863143D01*
X157182571Y-143791714D01*
X157254000Y-143648857D01*
X157254000Y-143220286D01*
X157182571Y-143077429D01*
X157111143Y-143006000D01*
X156968285Y-142934571D01*
X156682571Y-142934571D01*
X156539714Y-143006000D01*
X161473828Y-140826371D02*
X161473828Y-142326371D01*
X161473828Y-140897800D02*
X161330971Y-140826371D01*
X161045257Y-140826371D01*
X160902400Y-140897800D01*
X160830971Y-140969229D01*
X160759542Y-141112086D01*
X160759542Y-141540657D01*
X160830971Y-141683514D01*
X160902400Y-141754943D01*
X161045257Y-141826371D01*
X161330971Y-141826371D01*
X161473828Y-141754943D01*
X160116685Y-141826371D02*
X160116685Y-140826371D01*
X160116685Y-141112086D02*
X160045257Y-140969229D01*
X159973828Y-140897800D01*
X159830971Y-140826371D01*
X159688114Y-140826371D01*
X158973828Y-141826371D02*
X159116686Y-141754943D01*
X159188114Y-141683514D01*
X159259543Y-141540657D01*
X159259543Y-141112086D01*
X159188114Y-140969229D01*
X159116686Y-140897800D01*
X158973828Y-140826371D01*
X158759543Y-140826371D01*
X158616686Y-140897800D01*
X158545257Y-140969229D01*
X158473828Y-141112086D01*
X158473828Y-141540657D01*
X158545257Y-141683514D01*
X158616686Y-141754943D01*
X158759543Y-141826371D01*
X158973828Y-141826371D01*
X158045257Y-140826371D02*
X157473828Y-140826371D01*
X157830971Y-140326371D02*
X157830971Y-141612086D01*
X157759543Y-141754943D01*
X157616685Y-141826371D01*
X157473828Y-141826371D01*
X156759542Y-141826371D02*
X156902400Y-141754943D01*
X156973828Y-141683514D01*
X157045257Y-141540657D01*
X157045257Y-141112086D01*
X156973828Y-140969229D01*
X156902400Y-140897800D01*
X156759542Y-140826371D01*
X156545257Y-140826371D01*
X156402400Y-140897800D01*
X156330971Y-140969229D01*
X156259542Y-141112086D01*
X156259542Y-141540657D01*
X156330971Y-141683514D01*
X156402400Y-141754943D01*
X156545257Y-141826371D01*
X156759542Y-141826371D01*
X163452571Y-139799143D02*
X163595428Y-139870571D01*
X163881142Y-139870571D01*
X164024000Y-139799143D01*
X164095428Y-139727714D01*
X164166857Y-139584857D01*
X164166857Y-139156286D01*
X164095428Y-139013429D01*
X164024000Y-138942000D01*
X163881142Y-138870571D01*
X163595428Y-138870571D01*
X163452571Y-138942000D01*
X162809714Y-139299143D02*
X161666857Y-139299143D01*
X160952571Y-139870571D02*
X160952571Y-138370571D01*
X160952571Y-138942000D02*
X160809714Y-138870571D01*
X160524000Y-138870571D01*
X160381143Y-138942000D01*
X160309714Y-139013429D01*
X160238285Y-139156286D01*
X160238285Y-139584857D01*
X160309714Y-139727714D01*
X160381143Y-139799143D01*
X160524000Y-139870571D01*
X160809714Y-139870571D01*
X160952571Y-139799143D01*
X158952571Y-139870571D02*
X158952571Y-139084857D01*
X159024000Y-138942000D01*
X159166857Y-138870571D01*
X159452571Y-138870571D01*
X159595428Y-138942000D01*
X158952571Y-139799143D02*
X159095428Y-139870571D01*
X159452571Y-139870571D01*
X159595428Y-139799143D01*
X159666857Y-139656286D01*
X159666857Y-139513429D01*
X159595428Y-139370571D01*
X159452571Y-139299143D01*
X159095428Y-139299143D01*
X158952571Y-139227714D01*
X158309714Y-139799143D02*
X158166857Y-139870571D01*
X157881142Y-139870571D01*
X157738285Y-139799143D01*
X157666857Y-139656286D01*
X157666857Y-139584857D01*
X157738285Y-139442000D01*
X157881142Y-139370571D01*
X158095428Y-139370571D01*
X158238285Y-139299143D01*
X158309714Y-139156286D01*
X158309714Y-139084857D01*
X158238285Y-138942000D01*
X158095428Y-138870571D01*
X157881142Y-138870571D01*
X157738285Y-138942000D01*
X156452571Y-139799143D02*
X156595428Y-139870571D01*
X156881142Y-139870571D01*
X157023999Y-139799143D01*
X157095428Y-139656286D01*
X157095428Y-139084857D01*
X157023999Y-138942000D01*
X156881142Y-138870571D01*
X156595428Y-138870571D01*
X156452571Y-138942000D01*
X156381142Y-139084857D01*
X156381142Y-139227714D01*
X157095428Y-139370571D01*
D13*
G36*
X149514912Y-127907423D02*
X149319783Y-127889000D01*
X149044681Y-127969209D01*
X148854300Y-128245736D01*
X148843331Y-128271616D01*
X148607557Y-128602288D01*
X148363767Y-128734817D01*
X147964108Y-128738008D01*
X147670427Y-128565755D01*
X147501914Y-128281326D01*
X147477756Y-127947986D01*
X147617140Y-127629005D01*
X147939254Y-127387649D01*
X147953385Y-127381670D01*
X148249222Y-127187690D01*
X148336000Y-126921093D01*
X148272230Y-126688834D01*
X148066400Y-126627615D01*
X147696736Y-126734638D01*
X147515541Y-126815621D01*
X147108444Y-127135869D01*
X146864008Y-127590272D01*
X146792546Y-128109746D01*
X146904370Y-128625207D01*
X147183231Y-129041770D01*
X147472078Y-129280915D01*
X147780348Y-129389459D01*
X148175471Y-129413000D01*
X148603207Y-129383916D01*
X148895925Y-129268371D01*
X149135484Y-129059156D01*
X149387848Y-128709107D01*
X149548719Y-128330084D01*
X149556119Y-128297156D01*
X149592018Y-128018076D01*
X149514912Y-127907423D01*
X149514912Y-127907423D01*
G37*
X149514912Y-127907423D02*
X149319783Y-127889000D01*
X149044681Y-127969209D01*
X148854300Y-128245736D01*
X148843331Y-128271616D01*
X148607557Y-128602288D01*
X148363767Y-128734817D01*
X147964108Y-128738008D01*
X147670427Y-128565755D01*
X147501914Y-128281326D01*
X147477756Y-127947986D01*
X147617140Y-127629005D01*
X147939254Y-127387649D01*
X147953385Y-127381670D01*
X148249222Y-127187690D01*
X148336000Y-126921093D01*
X148272230Y-126688834D01*
X148066400Y-126627615D01*
X147696736Y-126734638D01*
X147515541Y-126815621D01*
X147108444Y-127135869D01*
X146864008Y-127590272D01*
X146792546Y-128109746D01*
X146904370Y-128625207D01*
X147183231Y-129041770D01*
X147472078Y-129280915D01*
X147780348Y-129389459D01*
X148175471Y-129413000D01*
X148603207Y-129383916D01*
X148895925Y-129268371D01*
X149135484Y-129059156D01*
X149387848Y-128709107D01*
X149548719Y-128330084D01*
X149556119Y-128297156D01*
X149592018Y-128018076D01*
X149514912Y-127907423D01*
G36*
X149761259Y-123317000D02*
X149007262Y-123310694D01*
X148465236Y-123289067D01*
X148093405Y-123248052D01*
X147849989Y-123183586D01*
X147729259Y-123119299D01*
X147492996Y-122834004D01*
X147447543Y-122500654D01*
X147558126Y-122181768D01*
X147789967Y-121939864D01*
X148108293Y-121837460D01*
X148407253Y-121900425D01*
X148694415Y-122127637D01*
X148843407Y-122362940D01*
X149035853Y-122622563D01*
X149285357Y-122682000D01*
X149534136Y-122617633D01*
X149597744Y-122412673D01*
X149479240Y-122049337D01*
X149416226Y-121921403D01*
X149051331Y-121459280D01*
X148566729Y-121203767D01*
X148007053Y-121167801D01*
X147444459Y-121349815D01*
X147087802Y-121605391D01*
X146888698Y-121953997D01*
X146814736Y-122460716D01*
X146812000Y-122619921D01*
X146847553Y-123047979D01*
X146987461Y-123357038D01*
X147183231Y-123580770D01*
X147554462Y-123952000D01*
X151511000Y-123952000D01*
X151511000Y-123317000D01*
X149761259Y-123317000D01*
X149761259Y-123317000D01*
G37*
X149761259Y-123317000D02*
X149007262Y-123310694D01*
X148465236Y-123289067D01*
X148093405Y-123248052D01*
X147849989Y-123183586D01*
X147729259Y-123119299D01*
X147492996Y-122834004D01*
X147447543Y-122500654D01*
X147558126Y-122181768D01*
X147789967Y-121939864D01*
X148108293Y-121837460D01*
X148407253Y-121900425D01*
X148694415Y-122127637D01*
X148843407Y-122362940D01*
X149035853Y-122622563D01*
X149285357Y-122682000D01*
X149534136Y-122617633D01*
X149597744Y-122412673D01*
X149479240Y-122049337D01*
X149416226Y-121921403D01*
X149051331Y-121459280D01*
X148566729Y-121203767D01*
X148007053Y-121167801D01*
X147444459Y-121349815D01*
X147087802Y-121605391D01*
X146888698Y-121953997D01*
X146814736Y-122460716D01*
X146812000Y-122619921D01*
X146847553Y-123047979D01*
X146987461Y-123357038D01*
X147183231Y-123580770D01*
X147554462Y-123952000D01*
X151511000Y-123952000D01*
X151511000Y-123317000D01*
X149761259Y-123317000D01*
G36*
X149453029Y-118693547D02*
X149426778Y-118639808D01*
X149062470Y-118199656D01*
X148524679Y-117935536D01*
X147897807Y-117856000D01*
X147542693Y-117868828D01*
X147373498Y-117932122D01*
X147322487Y-118083104D01*
X147320000Y-118173500D01*
X147362259Y-118402180D01*
X147540368Y-118484343D01*
X147692733Y-118491000D01*
X148224357Y-118565304D01*
X148620959Y-118765874D01*
X148847856Y-119059197D01*
X148870363Y-119411763D01*
X148809981Y-119570500D01*
X148565219Y-119890308D01*
X148229260Y-120008788D01*
X148133434Y-120013056D01*
X147818347Y-119907560D01*
X147556798Y-119650922D01*
X147447003Y-119339693D01*
X147447000Y-119338250D01*
X147341940Y-119164150D01*
X147129500Y-119126000D01*
X146885367Y-119217314D01*
X146793187Y-119453443D01*
X146850317Y-119777670D01*
X147054113Y-120133277D01*
X147183231Y-120278770D01*
X147472078Y-120517915D01*
X147780348Y-120626459D01*
X148175471Y-120650000D01*
X148601705Y-120621306D01*
X148893942Y-120506250D01*
X149142507Y-120288825D01*
X149466438Y-119791531D01*
X149573717Y-119237891D01*
X149453029Y-118693547D01*
X149453029Y-118693547D01*
G37*
X149453029Y-118693547D02*
X149426778Y-118639808D01*
X149062470Y-118199656D01*
X148524679Y-117935536D01*
X147897807Y-117856000D01*
X147542693Y-117868828D01*
X147373498Y-117932122D01*
X147322487Y-118083104D01*
X147320000Y-118173500D01*
X147362259Y-118402180D01*
X147540368Y-118484343D01*
X147692733Y-118491000D01*
X148224357Y-118565304D01*
X148620959Y-118765874D01*
X148847856Y-119059197D01*
X148870363Y-119411763D01*
X148809981Y-119570500D01*
X148565219Y-119890308D01*
X148229260Y-120008788D01*
X148133434Y-120013056D01*
X147818347Y-119907560D01*
X147556798Y-119650922D01*
X147447003Y-119339693D01*
X147447000Y-119338250D01*
X147341940Y-119164150D01*
X147129500Y-119126000D01*
X146885367Y-119217314D01*
X146793187Y-119453443D01*
X146850317Y-119777670D01*
X147054113Y-120133277D01*
X147183231Y-120278770D01*
X147472078Y-120517915D01*
X147780348Y-120626459D01*
X148175471Y-120650000D01*
X148601705Y-120621306D01*
X148893942Y-120506250D01*
X149142507Y-120288825D01*
X149466438Y-119791531D01*
X149573717Y-119237891D01*
X149453029Y-118693547D01*
G36*
X148244687Y-114754367D02*
X148008558Y-114662187D01*
X147684331Y-114719317D01*
X147328724Y-114923113D01*
X147183231Y-115052231D01*
X146918442Y-115404078D01*
X146799205Y-115748438D01*
X146828165Y-116028593D01*
X147007965Y-116187825D01*
X147129500Y-116205000D01*
X147382797Y-116141389D01*
X147447000Y-115970684D01*
X147554040Y-115679903D01*
X147808213Y-115429395D01*
X148109100Y-115316305D01*
X148123751Y-115316000D01*
X148297851Y-115210940D01*
X148336000Y-114998500D01*
X148244687Y-114754367D01*
X148244687Y-114754367D01*
G37*
X148244687Y-114754367D02*
X148008558Y-114662187D01*
X147684331Y-114719317D01*
X147328724Y-114923113D01*
X147183231Y-115052231D01*
X146918442Y-115404078D01*
X146799205Y-115748438D01*
X146828165Y-116028593D01*
X147007965Y-116187825D01*
X147129500Y-116205000D01*
X147382797Y-116141389D01*
X147447000Y-115970684D01*
X147554040Y-115679903D01*
X147808213Y-115429395D01*
X148109100Y-115316305D01*
X148123751Y-115316000D01*
X148297851Y-115210940D01*
X148336000Y-114998500D01*
X148244687Y-114754367D01*
G36*
X149549764Y-112442227D02*
X149391306Y-112082473D01*
X149136934Y-111773294D01*
X148834311Y-111538906D01*
X148531102Y-111403527D01*
X148274971Y-111391372D01*
X148113580Y-111526658D01*
X148082000Y-111696500D01*
X148140971Y-111940545D01*
X148252817Y-112014000D01*
X148507430Y-112124380D01*
X148726489Y-112393709D01*
X148840086Y-112729267D01*
X148844000Y-112798067D01*
X148747099Y-113134475D01*
X148510875Y-113411978D01*
X148217046Y-113537332D01*
X148195509Y-113538000D01*
X147894612Y-113446623D01*
X147615798Y-113228372D01*
X147456766Y-112967071D01*
X147447000Y-112895799D01*
X147368695Y-112701173D01*
X147129500Y-112649000D01*
X146896381Y-112694336D01*
X146818930Y-112881569D01*
X146815862Y-112998250D01*
X146865544Y-113346550D01*
X146949175Y-113569753D01*
X147239407Y-113857068D01*
X147686328Y-114071927D01*
X148194287Y-114170840D01*
X148275963Y-114173000D01*
X148764562Y-114057151D01*
X149175102Y-113749686D01*
X149463334Y-113310727D01*
X149585009Y-112800399D01*
X149549764Y-112442227D01*
X149549764Y-112442227D01*
G37*
X149549764Y-112442227D02*
X149391306Y-112082473D01*
X149136934Y-111773294D01*
X148834311Y-111538906D01*
X148531102Y-111403527D01*
X148274971Y-111391372D01*
X148113580Y-111526658D01*
X148082000Y-111696500D01*
X148140971Y-111940545D01*
X148252817Y-112014000D01*
X148507430Y-112124380D01*
X148726489Y-112393709D01*
X148840086Y-112729267D01*
X148844000Y-112798067D01*
X148747099Y-113134475D01*
X148510875Y-113411978D01*
X148217046Y-113537332D01*
X148195509Y-113538000D01*
X147894612Y-113446623D01*
X147615798Y-113228372D01*
X147456766Y-112967071D01*
X147447000Y-112895799D01*
X147368695Y-112701173D01*
X147129500Y-112649000D01*
X146896381Y-112694336D01*
X146818930Y-112881569D01*
X146815862Y-112998250D01*
X146865544Y-113346550D01*
X146949175Y-113569753D01*
X147239407Y-113857068D01*
X147686328Y-114071927D01*
X148194287Y-114170840D01*
X148275963Y-114173000D01*
X148764562Y-114057151D01*
X149175102Y-113749686D01*
X149463334Y-113310727D01*
X149585009Y-112800399D01*
X149549764Y-112442227D01*
G36*
X148458332Y-124884547D02*
X148431147Y-124618730D01*
X148361680Y-124496203D01*
X148230162Y-124461619D01*
X148145500Y-124460000D01*
X147979624Y-124473073D01*
X147884690Y-124549190D01*
X147840930Y-124743699D01*
X147828579Y-125111947D01*
X147828000Y-125349000D01*
X147832669Y-125813454D01*
X147859854Y-126079271D01*
X147929321Y-126201798D01*
X148060839Y-126236382D01*
X148145500Y-126238000D01*
X148311377Y-126224928D01*
X148406311Y-126148811D01*
X148450071Y-125954302D01*
X148462422Y-125586054D01*
X148463000Y-125349000D01*
X148458332Y-124884547D01*
X148458332Y-124884547D01*
G37*
X148458332Y-124884547D02*
X148431147Y-124618730D01*
X148361680Y-124496203D01*
X148230162Y-124461619D01*
X148145500Y-124460000D01*
X147979624Y-124473073D01*
X147884690Y-124549190D01*
X147840930Y-124743699D01*
X147828579Y-125111947D01*
X147828000Y-125349000D01*
X147832669Y-125813454D01*
X147859854Y-126079271D01*
X147929321Y-126201798D01*
X148060839Y-126236382D01*
X148145500Y-126238000D01*
X148311377Y-126224928D01*
X148406311Y-126148811D01*
X148450071Y-125954302D01*
X148462422Y-125586054D01*
X148463000Y-125349000D01*
X148458332Y-124884547D01*
G36*
X148547853Y-115897348D02*
X148375619Y-115744783D01*
X148149486Y-115697000D01*
X147906048Y-115747706D01*
X147829796Y-115949856D01*
X147828000Y-116018486D01*
X147898851Y-116290487D01*
X148028348Y-116416853D01*
X148273837Y-116397508D01*
X148482795Y-116220755D01*
X148564481Y-115977335D01*
X148547853Y-115897348D01*
X148547853Y-115897348D01*
G37*
X148547853Y-115897348D02*
X148375619Y-115744783D01*
X148149486Y-115697000D01*
X147906048Y-115747706D01*
X147829796Y-115949856D01*
X147828000Y-116018486D01*
X147898851Y-116290487D01*
X148028348Y-116416853D01*
X148273837Y-116397508D01*
X148482795Y-116220755D01*
X148564481Y-115977335D01*
X148547853Y-115897348D01*
G36*
X148469800Y-112530212D02*
X148253996Y-112417295D01*
X148161086Y-112420036D01*
X147941512Y-112546141D01*
X147843816Y-112776563D01*
X147889476Y-113006474D01*
X148019441Y-113111435D01*
X148271931Y-113097188D01*
X148414015Y-113006415D01*
X148536318Y-112757140D01*
X148469800Y-112530212D01*
X148469800Y-112530212D01*
G37*
X148469800Y-112530212D02*
X148253996Y-112417295D01*
X148161086Y-112420036D01*
X147941512Y-112546141D01*
X147843816Y-112776563D01*
X147889476Y-113006474D01*
X148019441Y-113111435D01*
X148271931Y-113097188D01*
X148414015Y-113006415D01*
X148536318Y-112757140D01*
X148469800Y-112530212D01*
G36*
X149525046Y-115862327D02*
X149331728Y-115800444D01*
X149100365Y-115886516D01*
X148905275Y-116108401D01*
X148862777Y-116205729D01*
X148655099Y-116535551D01*
X148405853Y-116710585D01*
X148191106Y-116875222D01*
X148078967Y-117113393D01*
X148083658Y-117339541D01*
X148219396Y-117468112D01*
X148278807Y-117475000D01*
X148713055Y-117361003D01*
X149121401Y-117064795D01*
X149438304Y-116655054D01*
X149598223Y-116200458D01*
X149606000Y-116084307D01*
X149525046Y-115862327D01*
X149525046Y-115862327D01*
G37*
X149525046Y-115862327D02*
X149331728Y-115800444D01*
X149100365Y-115886516D01*
X148905275Y-116108401D01*
X148862777Y-116205729D01*
X148655099Y-116535551D01*
X148405853Y-116710585D01*
X148191106Y-116875222D01*
X148078967Y-117113393D01*
X148083658Y-117339541D01*
X148219396Y-117468112D01*
X148278807Y-117475000D01*
X148713055Y-117361003D01*
X149121401Y-117064795D01*
X149438304Y-116655054D01*
X149598223Y-116200458D01*
X149606000Y-116084307D01*
X149525046Y-115862327D01*
D14*
X145423000Y-138439000D02*
X145423000Y-137169000D01*
X152773000Y-138439000D02*
X152773000Y-137169000D01*
X152773000Y-100829000D02*
X152773000Y-102099000D01*
X145423000Y-100829000D02*
X145423000Y-102099000D01*
X145423000Y-138439000D02*
X152773000Y-138439000D01*
X145423000Y-100829000D02*
X152773000Y-100829000D01*
X145423000Y-137169000D02*
X144138000Y-137169000D01*
M02*
