M48
;DRILL file {KiCad 4.0.0-rc1-stable} date Di 10 Nov 2015 17:33:34 CET
;FORMAT={-:-/ absolute / inch / decimal}
FMAT,2
INCH,TZ
T1C0.031
T2C0.032
T3C0.067
%
G90
G05
M72
T1
X5.72Y-4.06
X5.72Y-4.16
X5.72Y-4.26
X5.72Y-4.36
X5.72Y-4.46
X5.72Y-4.56
X5.72Y-4.66
X5.72Y-4.76
X5.72Y-4.86
X5.72Y-4.96
X5.72Y-5.06
X5.72Y-5.16
X5.72Y-5.26
X5.72Y-5.36
X6.02Y-4.06
X6.02Y-4.16
X6.02Y-4.26
X6.02Y-4.36
X6.02Y-4.46
X6.02Y-4.56
X6.02Y-4.66
X6.02Y-4.76
X6.02Y-4.86
X6.02Y-4.96
X6.02Y-5.06
X6.02Y-5.16
X6.02Y-5.26
X6.02Y-5.36
T2
X4.99Y-4.76
X4.99Y-4.86
X4.99Y-4.96
X5.09Y-4.56
X5.09Y-4.66
X5.09Y-4.76
X5.09Y-4.86
X5.09Y-4.96
X5.09Y-5.06
X5.09Y-5.16
X5.19Y-4.36
X5.19Y-4.46
X5.19Y-4.56
X5.19Y-4.66
X5.19Y-4.76
X5.19Y-4.86
X5.19Y-4.96
X5.19Y-5.06
X5.19Y-5.16
X5.19Y-5.26
X5.19Y-5.36
X5.29Y-4.26
X5.29Y-4.36
X5.29Y-4.46
X5.29Y-4.56
X5.29Y-4.66
X5.29Y-4.76
X5.29Y-4.86
X5.29Y-4.96
X5.29Y-5.06
X5.29Y-5.16
X5.29Y-5.26
X5.29Y-5.36
X5.39Y-4.16
X5.39Y-4.26
X5.39Y-4.36
X5.39Y-4.46
X5.39Y-4.56
X5.39Y-4.66
X5.39Y-4.76
X5.39Y-4.86
X5.39Y-4.96
X5.39Y-5.06
X5.39Y-5.16
X5.39Y-5.26
X5.39Y-5.36
X5.49Y-4.06
X5.49Y-4.16
X5.49Y-4.26
X5.49Y-4.36
X5.49Y-4.46
X5.49Y-4.56
X5.49Y-4.66
X5.49Y-4.76
X5.49Y-4.86
X5.49Y-4.96
X5.49Y-5.06
X5.49Y-5.16
X5.49Y-5.26
X5.49Y-5.36
X5.59Y-4.06
X5.59Y-4.16
X5.59Y-4.26
X5.59Y-4.36
X5.59Y-4.46
X5.59Y-4.56
X5.59Y-4.66
X5.59Y-4.76
X5.59Y-4.86
X5.59Y-4.96
X5.59Y-5.06
X5.59Y-5.16
X5.59Y-5.26
X5.59Y-5.36
X5.67Y-5.52
X5.77Y-5.52
X5.77Y-5.62
X5.77Y-5.72
X5.87Y-5.52
X5.87Y-5.62
X5.87Y-5.72
X5.97Y-5.52
X5.97Y-5.62
X5.97Y-5.72
X6.07Y-5.52
X6.15Y-4.06
X6.15Y-4.16
X6.15Y-4.26
X6.15Y-4.36
X6.15Y-4.46
X6.15Y-4.56
X6.15Y-4.66
X6.15Y-4.76
X6.15Y-4.86
X6.15Y-4.96
X6.15Y-5.06
X6.15Y-5.16
X6.15Y-5.26
X6.15Y-5.36
X6.25Y-4.06
X6.25Y-4.16
X6.25Y-4.26
X6.25Y-4.36
X6.25Y-4.46
X6.25Y-4.56
X6.25Y-4.66
X6.25Y-4.76
X6.25Y-4.86
X6.25Y-4.96
X6.25Y-5.06
X6.25Y-5.16
X6.25Y-5.26
X6.25Y-5.36
X6.35Y-4.16
X6.35Y-4.26
X6.35Y-4.36
X6.35Y-4.46
X6.35Y-4.56
X6.35Y-4.66
X6.35Y-4.76
X6.35Y-4.86
X6.35Y-4.96
X6.35Y-5.06
X6.35Y-5.16
X6.35Y-5.26
X6.35Y-5.36
X6.45Y-4.26
X6.45Y-4.36
X6.45Y-4.46
X6.45Y-4.56
X6.45Y-4.66
X6.45Y-4.76
X6.45Y-4.86
X6.45Y-4.96
X6.45Y-5.06
X6.45Y-5.16
X6.45Y-5.26
X6.45Y-5.36
X6.55Y-4.36
X6.55Y-4.46
X6.55Y-4.56
X6.55Y-4.66
X6.55Y-4.76
X6.55Y-4.86
X6.55Y-4.96
X6.55Y-5.06
X6.55Y-5.16
X6.55Y-5.26
X6.55Y-5.36
X6.65Y-4.56
X6.65Y-4.66
X6.65Y-4.76
X6.65Y-4.86
X6.65Y-4.96
X6.65Y-5.06
X6.65Y-5.16
X6.75Y-4.76
X6.75Y-4.86
X6.75Y-4.96
T3
X5.67Y-5.62
X5.67Y-5.72
X6.07Y-5.62
X6.07Y-5.72
T0
M30
